# xmcd CD database file
#
# Track frame offsets:
#	150
#	33900
#	63035
#	92932
#	132392
#	165025
#	192280
#	222265
#	252622
#	282900
#
# Disc length: 4229 seconds
#
# Revision: 8
# Processed by: cddbd v1.5.2PL0 Copyright (c) Steve Scherf et al.
# Submitted via: CDex 1.51
#
DISCID=8a10830a
DTITLE=Mike Stern - Between The Lines
DYEAR=1996
DGENRE=Jazz
TTITLE0=Sunnyside
TTITLE1=The Vine
TTITLE2=Wing And A Prayer
TTITLE3=Lose The Suit
TTITLE4=You Never Know
TTITLE5=Tell Me
TTITLE6=With A Twist
TTITLE7=True Enough
TTITLE8=Pages
TTITLE9=Bait Tone Blues
EXTD=YEAR: 1996
EXTT0=
EXTT1=
EXTT2=
EXTT3=
EXTT4=
EXTT5=Lincoln Goines - bass
EXTT6=Lincoln Goines - bass,\nDennis Chambers - drums
EXTT7=
EXTT8=
EXTT9=
PLAYORDER=
